<svg xmlns="http://www.w3.org/2000/svg" xmlns:xlink="http://www.w3.org/1999/xlink" width="50" height="50" preserveAspectRatio="xMidYMid meet" viewBox="0 0 50 50" style="-ms-transform: rotate(360deg); -webkit-transform: rotate(360deg); transform: rotate(360deg);"><path d="M30 8v33H6V8h24m4-4H2v42h32V4zM9 12h18v4H9zm0 7h18v4H9zm0 7h18v4H9zm0 7h18v4H9zm31-21h8v28h-8zm4.006-11C41.812 1 40 2.765 40 4.937V9h8V4.937C48 2.765 46.191 1 44.006 1zm-4.068 42l4.041 6.387L48 43z" fill="param(fill) #000" opacity="param(fill-opacity)" stroke="param(outline) 0" stroke-width="param(outline-width) 0" stroke-opacity="param(outline-opacity)"/></svg>